<svg aria-hidden="true" xmlns="http://www.w3.org/2000/svg" overflow="hidden">
  <defs>
    <symbol id="Filmoteka_Ico">
    <!-- <svg xmlns="http://www.w3.org/2000/svg" width="175" height="35" fill="none"> -->
        <path  stroke="#ff00" d="M48.704 18.962H40.12V28h-3.706V6.672h13.55V9.66H40.12v6.343h8.584v2.959ZM56.351 28h-3.56V12.15h3.56V28ZM52.57 8.034c0-.547.171-1 .513-1.362.351-.361.85-.542 1.494-.542.645 0 1.143.18 1.494.542.352.361.528.815.528 1.362 0 .537-.176.987-.528 1.348-.351.351-.85.527-1.494.527s-1.143-.176-1.494-.527c-.342-.361-.513-.81-.513-1.348ZM64.026 28h-3.56V5.5h3.56V28Zm7.237-15.85.102 1.656c1.114-1.3 2.637-1.949 4.57-1.949 2.12 0 3.57.811 4.351 2.432 1.153-1.621 2.774-2.432 4.863-2.432 1.748 0 3.047.484 3.897 1.45.86.967 1.299 2.393 1.318 4.278V28h-3.56V17.687c0-1.005-.219-1.743-.659-2.211-.439-.47-1.166-.704-2.182-.704-.81 0-1.475.22-1.992.66-.508.43-.865.996-1.07 1.699L80.916 28h-3.56V17.57c-.048-1.865-1-2.797-2.856-2.797-1.426 0-2.436.58-3.032 1.743V28h-3.56V12.15h3.355Zm22.09 7.779c0-1.553.307-2.95.922-4.19.616-1.25 1.48-2.207 2.593-2.87 1.113-.675 2.393-1.012 3.838-1.012 2.139 0 3.872.689 5.2 2.066 1.338 1.377 2.061 3.203 2.168 5.478l.015.835c0 1.563-.303 2.96-.908 4.19-.596 1.23-1.455 2.182-2.578 2.856-1.114.674-2.403 1.011-3.868 1.011-2.236 0-4.028-.742-5.376-2.227-1.337-1.494-2.006-3.481-2.006-5.961v-.176Zm3.56.307c0 1.631.336 2.91 1.01 3.838.674.918 1.611 1.377 2.812 1.377 1.202 0 2.134-.469 2.798-1.406.674-.938 1.011-2.31 1.011-4.116 0-1.602-.347-2.871-1.04-3.809-.684-.937-1.616-1.406-2.798-1.406-1.162 0-2.085.464-2.769 1.391-.683.918-1.025 2.295-1.025 4.131ZM115.56 8.298v3.852h2.797v2.637h-2.797v8.848c0 .605.117 1.045.351 1.318.244.264.674.396 1.289.396.41 0 .825-.05 1.245-.147v2.754a8.758 8.758 0 0 1-2.343.337c-2.735 0-4.102-1.509-4.102-4.526v-8.98h-2.607V12.15H112V8.298h3.56Zm12.509 19.995c-2.256 0-4.087-.708-5.493-2.124-1.396-1.426-2.095-3.32-2.095-5.684v-.44c0-1.581.303-2.992.909-4.233.615-1.25 1.474-2.221 2.578-2.914 1.103-.694 2.334-1.04 3.691-1.04 2.158 0 3.823.688 4.995 2.065 1.182 1.377 1.773 3.325 1.773 5.845v1.435H124.07c.108 1.309.542 2.344 1.304 3.106.772.761 1.738 1.142 2.9 1.142 1.631 0 2.959-.659 3.985-1.977l1.919 1.83c-.635.948-1.485 1.685-2.549 2.213-1.055.517-2.241.776-3.56.776Zm-.424-13.58c-.977 0-1.768.343-2.374 1.026-.595.684-.976 1.636-1.142 2.857h6.782v-.264c-.078-1.191-.395-2.09-.952-2.695-.557-.616-1.328-.923-2.314-.923Zm14.707 6.49-1.582 1.626V28h-3.56V5.5h3.56v12.979l1.113-1.392 4.38-4.937h4.277l-5.889 6.607L151.17 28h-4.116l-4.702-6.797ZM162.347 28c-.157-.303-.293-.796-.41-1.48-1.133 1.182-2.52 1.773-4.161 1.773-1.591 0-2.89-.454-3.896-1.362-1.006-.909-1.509-2.032-1.509-3.37 0-1.689.625-2.983 1.875-3.881 1.26-.909 3.057-1.363 5.391-1.363h2.182v-1.04c0-.82-.229-1.474-.688-1.963-.459-.498-1.157-.747-2.095-.747-.81 0-1.474.206-1.992.616-.518.4-.776.913-.776 1.538h-3.56c0-.87.288-1.68.864-2.432.576-.762 1.358-1.357 2.344-1.787.996-.43 2.105-.645 3.325-.645 1.856 0 3.335.47 4.439 1.407 1.103.927 1.67 2.236 1.699 3.925v7.149c0 1.426.2 2.563.6 3.413V28h-3.632Zm-3.911-2.564c.703 0 1.362-.17 1.977-.512.625-.342 1.094-.801 1.406-1.377v-2.988H159.9c-1.318 0-2.309.23-2.973.688-.664.46-.996 1.108-.996 1.948 0 .684.224 1.23.673 1.64.459.401 1.07.601 1.832.601Z"/>
        <path fill="none" stroke="" stroke-linecap="round" stroke-linejoin="round" stroke-width="2" d="M19.82 7H4.18A2.18 2.18 0 0 0 2 9.18v15.64A2.18 2.18 0 0 0 4.18 27h15.64A2.18 2.18 0 0 0 22 24.82V9.18A2.18 2.18 0 0 0 19.82 7ZM7 7v20M17 7v20M2 17h20M2 12h5M2 22h5M17 22h5M17 12h5"/>
    <!-- </svg> -->
    </symbol>

    <symbol id="Search_Svg">
        <path stroke="#fff" stroke-linecap="round" stroke-linejoin="round" d="M5.5 9.5a4 4 0 1 0 0-8 4 4 0 0 0 0 8ZM10.5 10.5 8.325 8.325"/>    
    </symbol>

    <symbol id="Film_Svg">
        <path stroke="#818181" stroke-linecap="round" stroke-linejoin="round" stroke-width="2" d="M19.82 2H4.18A2.18 2.18 0 0 0 2 4.18v15.64A2.18 2.18 0 0 0 4.18 22h15.64A2.18 2.18 0 0 0 22 19.82V4.18A2.18 2.18 0 0 0 19.82 2ZM7 2v20M17 2v20M2 12h20M2 7h5M2 17h5M17 17h5M17 7h5"/>
    </symbol>

    <symbol id="Heart_Svg">
        <path fill="#FF6B08" d="m7 12.88-.98-.98C2.38 8.68 0 6.51 0 3.85 0 1.68 1.68 0 3.85 0 5.04 0 6.23.56 7 1.47 7.77.56 8.96 0 10.15 0 12.32 0 14 1.68 14 3.85c0 2.66-2.38 4.83-6.02 8.05l-.98.98Z"/>
    </symbol>

    <symbol id="Close_Svg">
        <path stroke="" stroke-width="2" d="m8 8 14 14M8 22 22 8"/>
    </symbol>

    <symbol id="Arrow-Rgt_Svg">
        <path stroke="#000" stroke-linecap="round" stroke-linejoin="round" stroke-width="1.333" d="M3.333 8h9.334M8 12.667 12.667 8 8 3.333"/>
    </symbol>

    <symbol id="Arrow-Lft_Svg">
        <path stroke="#000" stroke-linecap="round" stroke-linejoin="round" stroke-width="1.333" d="M12.667 8H3.333M8 12.667 3.333 8 8 3.333"/>
    </symbol>

  </defs>
</svg>